REM DIRINDEX 1\2,1\3
REM DIRNAME cjc039,folder01,folder02
TITLE ""
FILE "0681-0720.mp3" MP3
  TRACK 01 AUDIO
    TITLE "0:"
    INDEX 01 00:00:00
  TRACK 02 AUDIO
    TITLE "2:cjc039_0681"
    INDEX 01 00:00:23
  TRACK 03 AUDIO
    TITLE "0:"
    INDEX 01 00:01:50
  TRACK 04 AUDIO
    TITLE "2:cjc039_0682"
    INDEX 01 00:02:24
  TRACK 05 AUDIO
    TITLE "0:"
    INDEX 01 00:03:68
  TRACK 06 AUDIO
    TITLE "2:cjc039_0683"
    INDEX 01 00:04:44
  TRACK 07 AUDIO
    TITLE "0:"
    INDEX 01 00:06:06
  TRACK 08 AUDIO
    TITLE "2:cjc039_0684"
    INDEX 01 00:06:53
  TRACK 09 AUDIO
    TITLE "0:"
    INDEX 01 00:07:66
  TRACK 10 AUDIO
    TITLE "2:cjc039_0685"
    INDEX 01 00:08:40
  TRACK 11 AUDIO
    TITLE "0:"
    INDEX 01 00:09:71
  TRACK 12 AUDIO
    TITLE "2:cjc039_0686"
    INDEX 01 00:10:47
  TRACK 13 AUDIO
    TITLE "0:"
    INDEX 01 00:11:74
  TRACK 14 AUDIO
    TITLE "2:cjc039_0687"
    INDEX 01 00:12:52
  TRACK 15 AUDIO
    TITLE "0:"
    INDEX 01 00:13:73
  TRACK 16 AUDIO
    TITLE "2:cjc039_0688"
    INDEX 01 00:14:53
  TRACK 17 AUDIO
    TITLE "0:"
    INDEX 01 00:16:08
  TRACK 18 AUDIO
    TITLE "2:cjc039_0689"
    INDEX 01 00:16:59
  TRACK 19 AUDIO
    TITLE "0:"
    INDEX 01 00:18:17
  TRACK 20 AUDIO
    TITLE "2:cjc039_0690"
    INDEX 01 00:18:64
  TRACK 21 AUDIO
    TITLE "0:"
    INDEX 01 00:20:24
  TRACK 22 AUDIO
    TITLE "2:cjc039_0691"
    INDEX 01 00:21:08
  TRACK 23 AUDIO
    TITLE "0:"
    INDEX 01 00:22:13
  TRACK 24 AUDIO
    TITLE "2:cjc039_0692"
    INDEX 01 00:22:70
  TRACK 25 AUDIO
    TITLE "0:"
    INDEX 01 00:24:08
  TRACK 26 AUDIO
    TITLE "2:cjc039_0693"
    INDEX 01 00:24:63
  TRACK 27 AUDIO
    TITLE "0:"
    INDEX 01 00:26:01
  TRACK 28 AUDIO
    TITLE "2:cjc039_0694"
    INDEX 01 00:26:60
  TRACK 29 AUDIO
    TITLE "0:"
    INDEX 01 00:28:02
  TRACK 30 AUDIO
    TITLE "2:cjc039_0695"
    INDEX 01 00:28:57
  TRACK 31 AUDIO
    TITLE "0:"
    INDEX 01 00:30:05
  TRACK 32 AUDIO
    TITLE "2:cjc039_0696"
    INDEX 01 00:30:63
  TRACK 33 AUDIO
    TITLE "0:"
    INDEX 01 00:32:00
  TRACK 34 AUDIO
    TITLE "2:cjc039_0697"
    INDEX 01 00:32:52
  TRACK 35 AUDIO
    TITLE "0:"
    INDEX 01 00:34:36
  TRACK 36 AUDIO
    TITLE "2:cjc039_0698"
    INDEX 01 00:35:08
  TRACK 37 AUDIO
    TITLE "0:"
    INDEX 01 00:36:38
  TRACK 38 AUDIO
    TITLE "2:cjc039_0699"
    INDEX 01 00:37:10
  TRACK 39 AUDIO
    TITLE "0:"
    INDEX 01 00:38:45
  TRACK 40 AUDIO
    TITLE "2:cjc039_0700"
    INDEX 01 00:39:23
  TRACK 41 AUDIO
    TITLE "0:"
    INDEX 01 00:40:32
  TRACK 42 AUDIO
    TITLE "2:cjc039_0701"
    INDEX 01 00:41:14
  TRACK 43 AUDIO
    TITLE "0:"
    INDEX 01 00:42:35
  TRACK 44 AUDIO
    TITLE "2:cjc039_0702"
    INDEX 01 00:43:17
  TRACK 45 AUDIO
    TITLE "0:"
    INDEX 01 00:44:26
  TRACK 46 AUDIO
    TITLE "2:cjc039_0703"
    INDEX 01 00:45:10
  TRACK 47 AUDIO
    TITLE "0:"
    INDEX 01 00:46:31
  TRACK 48 AUDIO
    TITLE "2:cjc039_0704"
    INDEX 01 00:46:72
  TRACK 49 AUDIO
    TITLE "0:"
    INDEX 01 00:48:26
  TRACK 50 AUDIO
    TITLE "2:cjc039_0705"
    INDEX 01 00:48:73
  TRACK 51 AUDIO
    TITLE "0:"
    INDEX 01 00:50:39
  TRACK 52 AUDIO
    TITLE "2:cjc039_0706"
    INDEX 01 00:51:15
  TRACK 53 AUDIO
    TITLE "0:"
    INDEX 01 00:52:36
  TRACK 54 AUDIO
    TITLE "2:cjc039_0707"
    INDEX 01 00:53:15
  TRACK 55 AUDIO
    TITLE "0:"
    INDEX 01 00:54:42
  TRACK 56 AUDIO
    TITLE "2:cjc039_0708"
    INDEX 01 00:55:16
  TRACK 57 AUDIO
    TITLE "0:"
    INDEX 01 00:56:41
  TRACK 58 AUDIO
    TITLE "2:cjc039_0709"
    INDEX 01 00:57:15
  TRACK 59 AUDIO
    TITLE "0:"
    INDEX 01 00:58:50
  TRACK 60 AUDIO
    TITLE "2:cjc039_0710"
    INDEX 01 00:59:22
  TRACK 61 AUDIO
    TITLE "0:"
    INDEX 01 01:00:41
  TRACK 62 AUDIO
    TITLE "2:cjc039_0711"
    INDEX 01 01:01:01
  TRACK 63 AUDIO
    TITLE "0:"
    INDEX 01 01:02:08
  TRACK 64 AUDIO
    TITLE "2:cjc039_0712"
    INDEX 01 01:02:61
  TRACK 65 AUDIO
    TITLE "0:"
    INDEX 01 01:04:00
  TRACK 66 AUDIO
    TITLE "2:cjc039_0713"
    INDEX 01 01:04:45
  TRACK 67 AUDIO
    TITLE "0:"
    INDEX 01 01:06:08
  TRACK 68 AUDIO
    TITLE "2:cjc039_0714"
    INDEX 01 01:06:61
  TRACK 69 AUDIO
    TITLE "0:"
    INDEX 01 01:08:38
  TRACK 70 AUDIO
    TITLE "2:cjc039_0715"
    INDEX 01 01:09:03
  TRACK 71 AUDIO
    TITLE "0:"
    INDEX 01 01:10:41
  TRACK 72 AUDIO
    TITLE "2:cjc039_0716"
    INDEX 01 01:11:13
  TRACK 73 AUDIO
    TITLE "0:"
    INDEX 01 01:12:54
  TRACK 74 AUDIO
    TITLE "2:cjc039_0717"
    INDEX 01 01:13:26
  TRACK 75 AUDIO
    TITLE "0:"
    INDEX 01 01:14:57
  TRACK 76 AUDIO
    TITLE "2:cjc039_0718"
    INDEX 01 01:15:33
  TRACK 77 AUDIO
    TITLE "0:"
    INDEX 01 01:16:65
  TRACK 78 AUDIO
    TITLE "2:cjc039_0719"
    INDEX 01 01:17:51
  TRACK 79 AUDIO
    TITLE "0:"
    INDEX 01 01:18:74
  TRACK 80 AUDIO
    TITLE "2:cjc039_0720"
    INDEX 01 01:19:54
  TRACK 81 AUDIO
    TITLE "0:"
    INDEX 01 01:21:29
